<svg height="512pt" viewBox="-78 0 512 512.00125" width="512pt" xmlns="http://www.w3.org/2000/svg"><path d="m214.703125 401c-.648437 0-1.308594-.058594-1.949219-.1875-.640625-.132812-1.269531-.332031-1.871094-.582031-.609374-.25-1.1875-.558594-1.730468-.917969-.546875-.359375-1.058594-.78125-1.519532-1.242188-.457031-.460937-.878906-.96875-1.238281-1.519531-.359375-.539062-.671875-1.121093-.921875-1.730469-.25-.597656-.4375-1.230468-.570312-1.867187-.128906-.640625-.199219-1.300781-.199219-1.953125 0-.648438.070313-1.308594.199219-1.949219.132812-.640625.320312-1.269531.570312-1.878906.25-.601563.5625-1.179687.921875-1.71875.359375-.550781.78125-1.0625 1.238281-1.523437.460938-.457032.972657-.878907 1.519532-1.238282.542968-.359375 1.121094-.671875 1.730468-.921875.601563-.25 1.230469-.449219 1.871094-.566406 1.289063-.261719 2.621094-.261719 3.910156 0 .628907.117187 1.261719.316406 1.871094.566406.597656.25 1.179688.5625 1.71875.921875.550782.359375 1.058594.78125 1.519532 1.238282.460937.460937.878906.972656 1.25 1.523437.359374.539063.671874 1.117187.921874 1.71875.25.609375.4375 1.238281.570313 1.878906.128906.640625.1875 1.300781.1875 1.949219 0 .652344-.058594 1.3125-.1875 1.953125-.132813.636719-.320313 1.269531-.570313 1.867187-.25.609376-.5625 1.191407-.921874 1.730469-.371094.550781-.789063 1.058594-1.25 1.519531-.460938.460938-.96875.882813-1.519532 1.242188-.539062.359375-1.121094.667969-1.71875.917969-.609375.25-1.242187.449219-1.871094.582031-.648437.128906-1.308593.1875-1.960937.1875zm0 0"/><path d="m330.394531 332.027344c-.820312-21.949219-7.292969-43.453125-18.71875-62.191406 0-.003907-.003906-.011719-.007812-.015626-1.445313-2.390624-2.957031-4.703124-4.472657-6.855468l-13.714843-19.589844c14.21875-2.890625 24.953125-15.492188 24.953125-30.554688 0-12.1875-7.03125-22.765624-17.25-27.890624 4.398437-3.308594 8.492187-6.855469 12.265625-10.632813 47.257812-47.257813 42.40625-126.582031 42.175781-129.9375-.335938-4.925781-4.222656-8.871094-9.144531-9.28125-2.914063-.246094-67.597657-5.160156-115.011719 29.195313-17.8125-36.050782-45.257812-60.328126-46.960938-61.8125-3.769531-3.28125-9.378906-3.28125-13.144531 0-1.703125 1.484374-29.148437 25.761718-46.964843 61.8125-47.414063-34.355469-112.097657-29.4375-115.007813-29.191407-4.925781.410157-8.808594 4.351563-9.148437 9.28125-.226563 3.351563-5.078126 82.675781 42.179687 129.933594 3.773437 3.777344 7.867187 7.324219 12.265625 10.632813-10.21875 5.125-17.253906 15.703124-17.253906 27.890624 0 15.0625 10.738281 27.664063 24.957031 30.558594l-13.703125 19.566406c-1.527344 2.171876-3.039062 4.484376-4.484375 6.875-.003906.003907-.007813.011719-.011719.015626-11.425781 18.734374-17.894531 40.242187-18.714844 62.191406-.820312 21.984375 4.046876 43.941406 14.082032 63.496094v.003906c.691406 1.367187 1.464844 2.808594 2.371094 4.429687l60.179687 106.949219c1.773437 3.148438 5.105469 5.09375 8.714844 5.09375h134.222656c3.609375 0 6.941406-1.945312 8.714844-5.09375l60.1875-106.972656c.898437-1.597656 1.667969-3.039063 2.363281-4.410156 10.03125-19.554688 14.902344-41.511719 14.082031-63.496094zm-244.027343-88.027344h183.132812l14.707031 21h-212.542969zm249.460937-189.246094c-.222656 20.863282-4.210937 73.089844-36.519531 105.402344-8.578125 8.574219-19.246094 15.796875-31.734375 21.484375h-34.980469c9.277344-19.453125 13.96875-38.722656 13.96875-57.476563 0-14.386718-2.761719-28.121093-7.117188-40.832031 32.132813-25.625 77.355469-28.574219 96.382813-28.578125zm-157.882813-30.851562c14.644532 14.984375 48.617188 54.664062 48.617188 100.261718 0 18.429688-5.53125 37.742188-16.457031 57.476563h-64.34375c-10.921875-19.734375-16.453125-39.046875-16.453125-57.476563 0-45.464843 34.003906-85.25 48.636718-100.261718zm-157.890624 30.835937h.222656c19.144531 0 64.058594 2.980469 96.144531 28.589844-4.355469 12.714844-7.113281 26.445313-7.113281 40.835937 0 18.753907 4.691406 38.023438 13.964844 57.476563h-34.980469c-12.484375-5.6875-23.15625-12.910156-31.730469-21.484375-32.21875-32.21875-36.253906-84.546875-36.507812-105.417969zm37.378906 158.082031c0-6.164062 5.015625-11.179687 11.179687-11.179687h218.640625c6.164063 0 11.179688 5.015625 11.179688 11.179687 0 6.164063-5.015625 11.179688-11.179688 11.179688h-218.640625c-6.164062 0-11.179687-5.015625-11.179687-11.179688zm181.761718 279.179688h-122.523437l-51.203125-91h105.464844c5.523437 0 10-4.476562 10-10s-4.476563-10-10-10h-116.160156c-13.609376-30.65625-12.214844-66.480469 3.761718-96h238.800782c15.976562 29.519531 17.371093 65.34375 3.761718 96h-40.421875c-5.523437 0-10 4.476562-10 10s4.476563 10 10 10h29.726563zm0 0"/><path d="m259.503906 369.066406 38.96875-27.9375c2.617188-1.878906 4.171875-4.90625 4.171875-8.128906s-1.554687-6.246094-4.171875-8.125l-38.96875-27.9375c-3.484375-2.5-8.171875-2.5-11.65625 0l-32.042968 22.972656-32.042969-22.972656c-3.484375-2.5-8.171875-2.5-11.652344 0l-32.046875 22.972656-32.042969-22.972656c-3.484375-2.5-8.167969-2.5-11.652343 0l-38.96875 27.9375c-2.621094 1.878906-4.171876 4.902344-4.171876 8.125s1.550782 6.25 4.171876 8.128906l38.96875 27.9375c1.742187 1.246094 3.785156 1.871094 5.828124 1.871094 2.042969 0 4.082032-.625 5.824219-1.871094l32.046875-22.972656 32.042969 22.972656c1.742187 1.246094 3.785156 1.871094 5.828125 1.871094 2.039062 0 4.082031-.625 5.824219-1.871094l32.046875-22.972656 32.042968 22.972656c1.742188 1.246094 3.785157 1.871094 5.828126 1.871094 2.039062 0 4.082031-.625 5.824218-1.871094zm-157.308594-20.433594-21.808593-15.632812 21.804687-15.632812 21.808594 15.632812zm75.738282 0-21.804688-15.632812 21.804688-15.632812 21.804687 15.632812zm53.933594-15.632812 21.808593-15.632812 21.804688 15.632812-21.804688 15.632812zm0 0"/></svg>